<?xml version="1.0" encoding="utf-8"?>
<!-- Generator: Adobe Illustrator 27.5.0, SVG Export Plug-In . SVG Version: 6.00 Build 0)  -->
<svg version="1.1" xmlns="http://www.w3.org/2000/svg" xmlns:xlink="http://www.w3.org/1999/xlink" x="0px" y="0px"
	 viewBox="0 0 500 500" style="enable-background:new 0 0 500 500;" xml:space="preserve">
<g id="BACKGROUND">
	<rect x="0" style="fill:#FFFFFF;" width="500" height="500"/>
</g>
<g id="OBJECTS">
	<g>
		<path style="fill:#E3EDFC;" d="M465.107,194.854c-6.072-68.656-68.144-120.116-136.733-113.329
			c-41.655,4.122-76.497,28.259-95.941,61.94c-11.244,19.476-33.011,30.224-55.271,27.026c-9.929-1.426-20.193-1.671-30.628-0.598
			c-67.817,6.972-117.85,67.788-111.609,135.676c6.353,69.107,67.745,119.715,136.693,112.893
			c41.772-4.133,76.693-28.395,96.105-62.224c11.194-19.508,33.377-29.764,55.654-26.665c9.605,1.336,19.52,1.567,29.596,0.57
			C421.188,323.392,471.132,262.97,465.107,194.854z"/>
	</g>
	<g>
		<g>
			<path style="fill:#AD6B28;" d="M210.768,285.505C192.811,144.931,45.618,66.557,45.618,66.557s37.92,71.219,53.986,165.124
				c0,0,32.275,15.913,46.435,70.385l53.766,31.471L210.768,285.505z"/>
			<path style="fill:none;stroke:#1C1C26;stroke-width:3.3443;stroke-miterlimit:10;" d="M210.768,285.505
				C192.811,144.931,45.618,66.557,45.618,66.557s37.92,71.219,53.986,165.124c0,0,32.275,15.913,46.435,70.385l53.766,31.471
				L210.768,285.505z"/>
			<g>
				<path style="fill:#1C1C26;" d="M71.786,91.033c7.815,5.073,15.257,10.719,22.458,16.642
					c7.201,5.927,14.136,12.182,20.832,18.685c13.363,13.035,25.805,27.034,37.126,41.921c5.66,7.444,10.952,15.175,15.88,23.135
					c4.951,7.949,9.363,16.231,13.44,24.67c4.07,8.451,7.44,17.23,10.353,26.15c2.835,8.954,4.942,18.128,6.433,27.4l-3.303,0.523
					c-0.932-4.511-1.663-9.058-2.889-13.501l-0.838-3.349l-0.419-1.674l-0.502-1.653l-2.021-6.605
					c-0.695-2.195-1.538-4.342-2.299-6.515l-1.17-3.25l-1.318-3.195c-0.889-2.125-1.7-4.283-2.644-6.386l-2.878-6.288
					c-4.015-8.3-8.36-16.455-13.247-24.295c-4.897-7.828-10.017-15.528-15.544-22.945c-5.529-7.412-11.339-14.622-17.404-21.616
					c-6.066-6.995-12.432-13.729-18.954-20.308C99.814,115.434,86.156,102.866,71.786,91.033z"/>
			</g>
		</g>
		<g>
			<path style="fill:#D38F3D;" d="M291.968,411.471c-2.147,2.135-6.239,7.402-10.551,0.833s-1.3-30.854-6.684-31.392
				c-3.85-0.385-10.215,4.258-17.346,4.043c1.575-6.085,2.036-12.869,1.119-19.895c-2.958-22.65-19.098-39.217-36.049-37.003
				c-16.951,2.214-28.295,22.37-25.338,45.02c2.264,17.339,12.256,31.101,24.42,35.615c25.029,10.451,37.319,0.296,37.319,0.296
				s-1.243,12.537,6.613,20.663c7.856,8.126,12.09,0.669,12.09,0.669s11.938,5.244,19.045-4.451
				C303.714,416.172,294.114,409.336,291.968,411.471z"/>
			<g>
				<path style="fill:#1C1C26;" d="M284.891,423.807c0,0-2.858,4.909-0.038,7.613l4.413,0.696
					C283.936,430.499,284.891,423.807,284.891,423.807z"/>
				<path style="fill:#1C1C26;" d="M279.202,411.057c-5.225,6.717-0.384,12.301-0.384,12.301c-1.57-4.515,2.625-8.866,2.625-8.866
					L279.202,411.057z"/>
				<path style="fill:#1C1C26;" d="M290.037,413.257l-2.458,1.394c0,0,1.827,3.808,5.878,3.625
					C293.457,418.276,290.25,415.02,290.037,413.257z"/>
			</g>
			<path style="fill:#AD6B28;" d="M277.561,385.713L277.561,385.713l-9.857-2.997c-3.063,1.132-6.583,2.35-10.317,2.238
				c0.424-1.639,0.761-3.333,1.018-5.065l-61.537-18.708c-0.344,3.825-0.281,7.818,0.251,11.895
				c1.295,9.914,5.123,18.649,10.432,25.165C246.924,408.137,277.56,385.714,277.561,385.713z"/>
			<g>
				<path style="fill:#1C1C26;" d="M200.532,346.499c-1.16,4.542-1.928,9.029-2.183,13.546c-0.241,4.507-0.133,9.018,0.581,13.459
					c0.695,4.436,1.94,8.777,3.73,12.862c0.873,2.053,1.934,4.012,3.061,5.924c1.206,1.859,2.456,3.695,3.925,5.339
					c1.409,1.699,3.042,3.173,4.705,4.582c1.716,1.341,3.523,2.559,5.46,3.504c0.463,0.272,0.996,0.439,1.491,0.664
					c0.505,0.211,0.995,0.429,1.539,0.625l3.185,1.209c1.056,0.436,2.139,0.688,3.207,1.042l1.607,0.496l1.631,0.376
					c4.34,1.027,8.792,1.562,13.176,1.25c2.194-0.122,4.355-0.522,6.435-1.129c0.519-0.155,1.042-0.304,1.541-0.503
					c0.506-0.184,1.016-0.363,1.497-0.593c0.497-0.206,0.966-0.447,1.432-0.694c0.442-0.239,0.939-0.548,1.241-0.762l3.125-2.215
					l-0.395,3.67l-0.001,0.004c-0.187,2.76,0.07,5.791,0.687,8.587c0.649,2.812,1.667,5.536,3.215,7.9
					c0.793,1.165,1.663,2.274,2.675,3.242l0.763,0.72c0.255,0.239,0.537,0.414,0.802,0.626c0.527,0.444,1.102,0.717,1.654,1.023
					c1.133,0.549,2.242,0.649,3.234,0.316c0.505-0.146,0.987-0.441,1.432-0.813c0.227-0.178,0.435-0.397,0.633-0.617
					c0.187-0.207,0.4-0.503,0.49-0.646l0.785-1.252l1.342,0.546c0.813,0.331,1.85,0.633,2.811,0.845
					c0.984,0.201,1.979,0.357,2.972,0.395c1.983,0.105,3.956-0.143,5.737-0.84c1.786-0.689,3.352-1.841,4.644-3.289
					c1.323-1.428,2.354-3.204,2.839-4.957c0.476-1.767,0.337-3.598-0.499-5.149c-0.401-0.778-0.973-1.477-1.63-2.037
					c-0.634-0.549-1.481-0.967-1.962-0.995c-0.125-0.023-0.153,0.016-0.144-0.006c0.039,0.005,0.04-0.027,0.1-0.048
					c0.011,0,0.068-0.07,0.025-0.028l-0.135,0.138l-1.152,1.179c-0.822,0.811-1.722,1.651-2.914,2.317
					c-0.605,0.321-1.271,0.615-2.036,0.748c-0.385,0.062-0.768,0.126-1.174,0.085l-0.6-0.039c-0.194-0.036-0.385-0.091-0.577-0.141
					c-1.539-0.433-2.646-1.409-3.477-2.364c-0.411-0.496-0.756-0.976-1.119-1.515c-0.363-0.588-0.634-1.175-0.862-1.756
					c-0.452-1.163-0.718-2.3-0.947-3.429c-0.449-2.258-0.663-4.473-0.857-6.679c-0.37-4.396-0.499-8.774-1.009-12.981
					c-0.131-1.047-0.299-2.075-0.526-3.043c-0.218-0.95-0.559-1.904-0.92-2.376c-0.187-0.214-0.253-0.265-0.251-0.237
					c-0.084-0.016-0.337-0.004-0.497-0.018l-0.628,0.068c-0.885,0.147-1.87,0.467-2.86,0.811c-1.99,0.705-4.077,1.544-6.272,2.18
					c-2.201,0.628-4.55,1.056-6.966,1.001l-0.009,0l-2.028,0.014l0.46-2.105c0.312-1.43,0.622-2.859,0.836-4.309
					c0.251-1.442,0.436-2.898,0.559-4.361c0.262-2.923,0.338-5.877,0.191-8.835c-0.131-2.961-0.502-5.919-1.037-8.866
					c-0.558-2.943-1.346-5.858-2.308-8.754c1.593,2.605,2.872,5.417,3.879,8.334c1.024,2.914,1.73,5.946,2.181,9.022
					c0.449,3.077,0.61,6.211,0.441,9.337c-0.093,1.562-0.253,3.122-0.483,4.674c-0.267,1.545-0.574,3.088-1.021,4.595l-1.568-2.09
					l0.007,0c1.955,0.042,3.951-0.304,5.941-0.872c2-0.578,3.97-1.367,6.092-2.122c1.069-0.367,2.164-0.741,3.435-0.957l1-0.107
					c0.383,0.012,0.681-0.013,1.134,0.049c0.263,0.051,0.526,0.119,0.78,0.201c0.232,0.108,0.456,0.237,0.674,0.372
					c0.238,0.132,0.358,0.294,0.536,0.448c0.169,0.158,0.323,0.321,0.426,0.478c0.936,1.297,1.229,2.489,1.529,3.644
					c0.271,1.156,0.452,2.285,0.592,3.404c0.537,4.463,0.659,8.823,1.024,13.124c0.186,2.14,0.398,4.277,0.803,6.302
					c0.202,1.008,0.443,2.004,0.785,2.876c0.17,0.435,0.362,0.838,0.572,1.18c0.248,0.361,0.541,0.773,0.824,1.115
					c0.586,0.687,1.237,1.16,1.808,1.317c0.56,0.156,1.165,0.054,1.899-0.346c0.722-0.395,1.455-1.041,2.178-1.763l1.135-1.162
					l0.151-0.154c0.053-0.055,0.225-0.2,0.341-0.287c0.26-0.213,0.537-0.316,0.816-0.434c0.533-0.165,1.055-0.209,1.473-0.164
					c0.87,0.075,1.554,0.341,2.18,0.651c0.62,0.317,1.18,0.692,1.682,1.119c1.003,0.854,1.833,1.879,2.437,3.039
					c1.256,2.306,1.445,5.138,0.771,7.567c-0.327,1.223-0.838,2.36-1.443,3.41c-0.298,0.53-0.636,1.024-0.979,1.514
					c-0.361,0.479-0.765,0.931-1.149,1.395c-1.6,1.803-3.64,3.305-5.936,4.186c-2.291,0.895-4.748,1.187-7.115,1.061
					c-1.189-0.048-2.357-0.229-3.51-0.467c-1.167-0.267-2.238-0.558-3.446-1.051l2.126-0.705c-0.31,0.509-0.561,0.823-0.877,1.192
					c-0.311,0.349-0.635,0.684-1.006,0.982c-0.722,0.605-1.572,1.129-2.532,1.426c-1.919,0.663-4.07,0.344-5.676-0.451
					c-0.79-0.412-1.593-0.833-2.245-1.37c-0.334-0.262-0.699-0.504-1.003-0.786l-0.907-0.852c-1.198-1.148-2.227-2.453-3.15-3.818
					c-1.807-2.763-2.954-5.862-3.676-8.998c-0.682-3.175-0.975-6.299-0.751-9.641l0-0.008l2.729,1.454
					c-0.617,0.492-1.104,0.8-1.663,1.142c-0.545,0.321-1.095,0.63-1.658,0.893c-1.119,0.552-2.268,1.023-3.446,1.385
					c-2.347,0.747-4.764,1.245-7.191,1.441c-4.857,0.458-9.733,0-14.4-1.092l-1.757-0.392l-1.718-0.512
					c-1.134-0.363-2.317-0.638-3.41-1.076l-3.312-1.258c-0.546-0.198-1.116-0.449-1.679-0.687c-0.559-0.255-1.138-0.444-1.678-0.755
					c-2.229-1.096-4.279-2.483-6.206-4.001c-1.877-1.572-3.652-3.267-5.187-5.151c-6.314-7.438-9.828-16.789-11.095-26.22
					c-0.628-4.726-0.684-9.558,0.129-14.257C196.458,355.051,197.997,350.46,200.532,346.499z"/>
			</g>
			<g>
				<path style="fill:#1C1C26;" d="M277.003,431.895c-1.762-0.548-3.533-1.35-4.944-2.665c-1.44-1.247-2.605-2.832-3.315-4.549
					c-0.753-1.701-1.122-3.509-1.195-5.281c-0.044-1.773,0.157-3.541,0.796-5.17c0.708,3.367,1.666,6.442,3.241,8.976
					c0.211,0.305,0.394,0.628,0.618,0.916c0.242,0.275,0.457,0.566,0.681,0.848c0.223,0.283,0.509,0.508,0.755,0.766l0.37,0.386
					l0.423,0.328c1.061,0.963,2.378,1.57,3.685,2.292L277.003,431.895z"/>
			</g>
		</g>
		<g>
			<path style="fill:#FFC661;" d="M293.853,365.986c61.635-14.905,79.329-46.646,84.358-62.071c1.257-3.856-2.249-7.565-6.172-6.538
				c-18.555,4.859-64.602,15.486-93.398,9.769L293.853,365.986z"/>
			<path style="fill:#FFDF99;" d="M318.102,317.119c0.558,1.096,1.731,1.75,2.956,1.639c38.625-3.51,52.124-15.714,49.722-15.981
				c-2.275-0.253-28.797,7.851-50.852,8.476c-2.207,0.062-3.584,2.415-2.582,4.382L318.102,317.119z"/>
			<path style="fill:#1C1C26;" d="M337.271,304.94c0,0,8.586,7.524,9.109,19.178c0,0,4.111-10.644-2.462-20.381L337.271,304.94z"/>
			<path style="fill:#D38F3D;" d="M284.239,328.796l9.615,37.189c61.567-14.888,79.289-46.576,84.341-62.02
				C359.872,324.5,329.716,342.936,284.239,328.796z"/>
			<path style="fill:#AD6B28;" d="M293.853,365.986c51.682-12.498,72.465-36.832,80.796-53.46
				c-14.42,17.362-39.375,40.133-68.898,36.298l-12.514,14.78L293.853,365.986z"/>
			<path style="fill:#1C1C26;" d="M364.746,327.858c0,0,1.866-7.883-2.062-13.93c0,0,4.375,3.492,5.772,9.869L364.746,327.858z"/>
			<path style="fill:#1C1C26;" d="M325.606,355.379c0,0,7.287-8.482,4.668-25.11c0,0,4.75,8.122,2.309,22.526L325.606,355.379z"/>
			<path style="fill:none;stroke:#1C1C26;stroke-width:3.3443;stroke-miterlimit:10;" d="M293.853,365.986
				c61.635-14.905,79.329-46.646,84.358-62.071c1.257-3.856-2.249-7.565-6.172-6.538c-18.555,4.859-64.602,15.486-93.398,9.769
				L293.853,365.986z"/>
		</g>
		<g>
			<path style="fill:#FFC661;" d="M150.526,269.076c6.892,68.728,60.416,137.593,124.292,117.818
				c62.973-19.496,43.236-102.088-16.316-102.54c-65.475-0.497-68.737-21.891-68.737-21.891L150.526,269.076z"/>
			<path style="fill:#D38F3D;" d="M312.667,327.05c-13.481,22.972-104.407,89.408-153.452-51.693l-8.138-1.591
				c8.784,67.102,61.16,131.931,123.741,113.128C307.544,377.062,318.104,350.62,312.667,327.05z"/>
			<g>
				<path style="fill:#1C1C26;" d="M310.054,318.759c-1.106-1.136-1.939-2.348-2.827-3.516c-0.445-0.583-0.876-1.168-1.28-1.764
					l-0.598-0.896c-0.213-0.29-0.434-0.575-0.635-0.87c-0.834-1.165-1.56-2.394-2.448-3.515l-1.274-1.719l-1.393-1.623
					c-3.726-4.312-8.134-8.022-13.021-10.916c-4.906-2.86-10.249-4.952-15.798-6.156l-2.091-0.405
					c-0.697-0.137-1.391-0.287-2.101-0.345c-1.415-0.138-2.818-0.378-4.24-0.438l-4.282-0.163l-4.448-0.118
					c-11.846-0.269-23.771-1.165-35.455-3.97l-4.361-1.134c-1.455-0.368-2.867-0.943-4.301-1.405l-2.142-0.734l-2.094-0.904
					c-1.39-0.617-2.805-1.164-4.131-1.955c-1.346-0.736-2.707-1.434-3.961-2.364c-0.634-0.447-1.291-0.852-1.903-1.337l-1.791-1.527
					c-0.619-0.476-1.111-1.132-1.665-1.697c-0.561-0.559-1.035-1.221-1.506-1.882c-0.503-0.626-0.875-1.387-1.285-2.102
					c-0.361-0.805-0.686-1.461-0.912-2.586l0-0.001l1.931,1.397l-39.238,6.613l0,0l1.386-1.816
					c1.193,10.447,3.374,20.773,6.439,30.823c3.099,10.044,7.209,19.762,12.125,29.029c4.897,9.281,10.825,18.002,17.587,25.983
					c3.458,3.918,7.027,7.755,10.968,11.177c1.9,1.793,3.987,3.357,6.005,5.006c1.028,0.799,2.11,1.523,3.162,2.289l1.588,1.135
					c0.533,0.373,1.097,0.697,1.643,1.049l3.303,2.071l3.423,1.856c0.574,0.303,1.134,0.634,1.718,0.914l1.763,0.819
					c1.183,0.528,2.335,1.134,3.543,1.601c4.793,1.98,9.779,3.431,14.852,4.456c10.181,1.806,20.755,1.536,30.815-1.113
					c5.062-1.182,9.972-2.973,14.577-5.31c4.606-2.334,8.907-5.258,12.641-8.788c0.958-0.857,1.788-1.841,2.69-2.754
					c0.853-0.957,1.633-1.978,2.454-2.963c0.718-1.062,1.495-2.086,2.169-3.176l0.976-1.657l0.489-0.828l0.424-0.863
					c2.312-4.599,4.053-9.369,6.078-14.448c0.608,5.454-0.78,10.988-3.254,15.877l-0.449,0.928l-0.515,0.893l-1.032,1.785
					c-0.713,1.174-1.532,2.281-2.296,3.424c-0.866,1.065-1.696,2.165-2.6,3.198c-0.953,0.987-1.839,2.045-2.852,2.971
					c-3.958,3.809-8.51,6.956-13.357,9.464c-4.849,2.513-9.985,4.43-15.259,5.714c-10.49,2.857-21.641,3.257-32.391,1.438
					c-5.356-1.03-10.62-2.516-15.675-4.554c-1.273-0.482-2.487-1.102-3.734-1.647l-1.858-0.845c-0.616-0.288-1.2-0.637-1.802-0.953
					l-3.582-1.947l-3.45-2.163c-0.57-0.367-1.16-0.708-1.715-1.097l-1.655-1.181c-1.096-0.797-2.223-1.555-3.292-2.386
					c-2.098-1.711-4.266-3.343-6.235-5.2c-4.086-3.554-7.773-7.518-11.34-11.565c-6.972-8.235-13.056-17.202-18.076-26.722
					c-9.988-19.06-16.325-40.005-18.344-61.405l-0.148-1.57l1.534-0.246l0,0l39.238-6.613l1.356-0.228l0.575,1.625l0,0l0.101,0.296
					c0.052,0.133,0.071,0.256,0.149,0.399c0.137,0.278,0.249,0.558,0.397,0.835c0.351,0.544,0.631,1.113,1.076,1.621
					c0.403,0.524,0.797,1.052,1.303,1.515c0.494,0.466,0.904,0.996,1.468,1.406l1.592,1.308c0.548,0.418,1.158,0.773,1.732,1.164
					c1.127,0.813,2.405,1.432,3.653,2.086c1.218,0.704,2.568,1.192,3.877,1.745l1.974,0.811l2.048,0.656
					c1.375,0.413,2.707,0.933,4.113,1.26l4.199,1.031c1.386,0.389,2.823,0.606,4.246,0.87l4.273,0.775
					c2.871,0.417,5.766,0.717,8.645,1.095c2.895,0.288,5.808,0.454,8.712,0.689l2.18,0.159l2.189,0.064l4.378,0.128l4.378,0.132
					l4.539,0.219c1.518,0.082,3.023,0.348,4.534,0.516c0.758,0.073,1.503,0.239,2.249,0.392l2.238,0.459
					c5.937,1.361,11.684,3.642,16.878,6.837c5.186,3.207,9.821,7.267,13.7,11.935l1.447,1.757l1.321,1.853
					c0.912,1.213,1.703,2.509,2.425,3.842c0.378,0.656,0.71,1.338,0.978,2.052c0.288,0.703,0.548,1.417,0.795,2.133
					c0.258,0.71,0.397,1.473,0.54,2.225C309.899,317.223,310.004,317.985,310.054,318.759z"/>
			</g>
		</g>
		<g>
			<g>
				<g>
					<path style="fill:#FFC661;" d="M196.589,226.46c-0.869-33.959-27-52.401-59.147-52.401s-58.208,20.483-58.208,52.63
						c0,6.671,1.126,13.079,3.192,19.048c-2.034,3.674-3.148,7.632-3.148,11.76c0,19.221,19.593,35.337,53.534,33.614
						C170.653,289.19,198.126,267.745,196.589,226.46z"/>
				</g>
			</g>
			<ellipse style="fill:#D38F3D;" cx="153.091" cy="226.406" rx="27.119" ry="22.953"/>
			<path style="fill:#D38F3D;" d="M99.338,214.81c0,0-10.877,16.973-20.034,14.629c0.265,5.684,1.342,11.155,3.123,16.298
				c-2.034,3.674-3.148,7.632-3.148,11.76c0,0.663,0.029,1.322,0.075,1.977l30.249,1.09L99.338,214.81z"/>
			<path style="fill:#D38F3D;" d="M132.812,291.112c37.841-1.921,65.313-23.367,63.777-64.651
				c-0.346-13.522-4.707-24.575-11.849-32.992c-2.775,8.122-3.475,17.883-2.257,29.838c2.715,26.665-6.344,72.281-85.849,53.817
				c-3.902-0.906-7.642-1.66-11.238-2.284C93.643,285.347,109.973,292.271,132.812,291.112z"/>
			<g>
				<g>
					<g>
						<path style="fill:#1C1C26;" d="M182.563,270.369c1.175-2.341,2.47-4.467,3.633-6.669c1.152-2.199,2.347-4.347,3.363-6.594
							c2.107-4.457,3.483-9.24,4.386-14.096c0.89-4.869,1.173-9.84,1.069-14.814c-0.078-4.98-0.588-9.895-1.862-14.644
							c-1.209-4.757-3.166-9.291-5.724-13.442c-1.313-2.055-2.762-4.019-4.358-5.861c-1.627-1.813-3.354-3.54-5.232-5.098
							c-7.508-6.282-16.874-10.098-26.531-11.917c-4.847-0.87-9.793-1.311-14.735-1.226c-4.93,0.067-9.855,0.602-14.642,1.727
							c-4.797,1.08-9.436,2.776-13.809,4.969c-4.345,2.245-8.412,5.022-11.958,8.363c-3.547,3.329-6.628,7.163-8.986,11.417
							c-0.627,1.043-1.12,2.158-1.671,3.242c-0.467,1.123-0.993,2.222-1.381,3.378c-0.872,2.275-1.497,4.639-2.008,7.024
							c-0.963,4.785-1.29,9.723-0.952,14.623c0.313,4.898,1.264,9.758,2.834,14.418l0.007,0.023l0.231,0.695l-0.348,0.662
							c-2.05,3.899-3.138,8.233-2.671,12.586c0.291,4.371,1.783,8.59,4.139,12.275c2.355,3.698,5.604,6.824,9.292,9.334
							c3.713,2.504,7.908,4.276,12.21,5.667l3.272,0.944c1.096,0.297,2.227,0.473,3.34,0.717c2.218,0.536,4.511,0.702,6.776,1.022
							c1.134,0.159,2.288,0.152,3.431,0.238c1.146,0.051,2.291,0.156,3.44,0.164c2.301-0.04,4.603,0.025,6.909-0.096
							c4.608-0.235,9.201-0.77,13.719-1.675l6.782-1.402c2.273-0.471,4.554-0.947,6.943-1.305c-1.94,1.442-4.077,2.544-6.286,3.448
							c-2.212,0.898-4.499,1.607-6.827,2.118c-4.65,1.053-9.379,1.724-14.124,2.085c-9.485,0.741-19.189,0.073-28.489-2.644
							c-4.602-1.475-9.127-3.374-13.213-6.114c-4.059-2.747-7.715-6.227-10.408-10.434c-2.709-4.188-4.293-9.127-4.563-14.108
							c-0.265-2.472,0.024-5.061,0.591-7.5c0.599-2.45,1.582-4.781,2.81-6.937l-0.117,1.357l-0.008-0.024
							c-3.482-9.827-4.347-20.57-2.33-30.862c0.528-2.565,1.185-5.115,2.105-7.578c0.412-1.249,0.967-2.443,1.466-3.66
							c0.583-1.178,1.112-2.386,1.78-3.521c2.524-4.618,5.813-8.816,9.641-12.415c3.833-3.604,8.207-6.585,12.857-8.981
							c4.677-2.343,9.619-4.139,14.703-5.282c5.075-1.188,10.275-1.748,15.465-1.814c5.183-0.084,10.37,0.379,15.486,1.302
							c10.201,1.886,20.154,6.098,28.173,12.917c2.004,1.696,3.849,3.572,5.582,5.544c1.703,2.001,3.244,4.133,4.635,6.359
							c2.713,4.492,4.759,9.38,5.999,14.451c1.307,5.055,1.792,10.29,1.823,15.428c0.058,5.142-0.284,10.331-1.264,15.418
							c-0.992,5.078-2.488,10.096-4.756,14.781C190.027,263.054,186.839,267.381,182.563,270.369z"/>
					</g>
				</g>
			</g>
			<g>
				<path style="fill:#FFC661;" d="M112.818,178.493c93.829-47.99,124.695-34.957,127.997-26.268
					c3.302,8.689-40.406,17.308-45.028,64.825L112.818,178.493z"/>
				<path style="fill:#FFDF99;" d="M190.158,147.621c40.112-7.478,33.188,4.469,7.53,12.75
					c-25.658,8.281-47.855,28.577-63.603,24.165c-16.979-4.757-24.483-4.11-24.483-4.11S154.594,156.049,190.158,147.621z"/>
				<path style="fill:#D38F3D;" d="M227.838,144.661c8.083,6.178-10.494,17.716-23.091,25.281
					c-15.285,9.179-22.516,21.786-22.827,41.396l13.874,6.594c4.622-47.517,48.324-57.018,45.022-65.706
					C239.751,149.424,235.816,146.175,227.838,144.661z"/>
				<path style="fill:#D38F3D;" d="M194.429,191.018c0,0-4.323-7.613-7.49-10.051c0,0,4.741,0.616,7.965,3.705
					C198.129,187.76,194.429,191.018,194.429,191.018z"/>
				<path style="fill:#D38F3D;" d="M199.624,155.626c0,0,10.078,8.614,10.825,17.438l6.449-5.973
					C216.897,167.091,215.747,160.995,199.624,155.626z"/>
				<path style="fill:none;stroke:#1C1C26;stroke-width:3.3443;stroke-miterlimit:10;" d="M104.207,182.637
					c91.444-48.739,133.306-39.1,136.608-30.412c3.302,8.689-40.4,18.19-45.022,65.706"/>
			</g>
			<g>
				<path style="fill:#FFC661;" d="M136.532,198.902l42.564,9.305C183.105,190.275,160.516,180.636,136.532,198.902z"/>
				<path style="fill:#FFDF99;" d="M179.478,205.819c1.573-16.361-20.05-24.354-42.946-6.917l0.745,0.163
					C155.957,189.4,175.717,194.434,179.478,205.819z"/>
				<g>
					<path style="fill:#1C1C26;" d="M136.532,198.902c3.344-3.556,7.505-6.334,12.066-8.223c2.269-0.977,4.657-1.693,7.098-2.182
						c2.449-0.454,4.958-0.652,7.469-0.51c2.505,0.152,5.028,0.603,7.399,1.573c2.355,0.964,4.616,2.368,6.311,4.357
						c1.73,1.947,2.855,4.413,3.264,6.938c0.393,2.532,0.051,5.13-1.042,7.352c-0.047-2.473-0.193-4.789-0.769-6.977
						c-0.255-1.099-0.677-2.142-1.196-3.122c-0.287-0.476-0.546-0.966-0.897-1.397c-0.299-0.466-0.667-0.88-1.033-1.295
						c-3.018-3.266-7.573-4.972-12.154-5.136c-4.615-0.216-9.234,0.879-13.62,2.491
						C145.013,194.402,140.881,196.689,136.532,198.902z"/>
				</g>
			</g>
			<g>
				<path style="fill:#FFC661;" d="M127.246,198.902l-42.564,9.305C80.673,190.275,103.262,180.636,127.246,198.902z"/>
				<ellipse style="fill:#D38F3D;" cx="107.822" cy="225.464" rx="27.119" ry="23.895"/>
				<path style="fill:#FFDF99;" d="M84.3,205.819c-1.573-16.361,20.05-24.354,42.946-6.917l-0.745,0.163
					C107.821,189.4,88.061,194.434,84.3,205.819z"/>
				<g>
					<path style="fill:#1C1C26;" d="M127.246,198.902c-4.35-2.213-8.481-4.5-12.894-6.132c-4.386-1.611-9.006-2.706-13.62-2.491
						c-4.582,0.163-9.137,1.869-12.155,5.136c-0.366,0.415-0.734,0.829-1.033,1.295c-0.351,0.431-0.61,0.921-0.897,1.397
						c-0.519,0.98-0.941,2.024-1.196,3.122c-0.576,2.188-0.722,4.504-0.769,6.977c-1.093-2.222-1.435-4.82-1.042-7.352
						c0.409-2.525,1.534-4.99,3.264-6.938c1.695-1.989,3.955-3.393,6.311-4.357c2.37-0.971,4.894-1.422,7.399-1.573
						c2.511-0.142,5.021,0.057,7.469,0.51c2.441,0.489,4.829,1.205,7.098,2.182C119.742,192.569,123.902,195.346,127.246,198.902z"
						/>
				</g>
			</g>
			<g>
				<path style="fill-rule:evenodd;clip-rule:evenodd;fill:#FFFFFF;" d="M162.511,256.216c3.687,18.094-20.162,38.384-46.044,24.306
					l37.195-23.782L162.511,256.216z"/>
				<path style="fill-rule:evenodd;clip-rule:evenodd;fill:none;stroke:#1C1C26;stroke-width:3.0646;stroke-miterlimit:10;" d="
					M162.511,256.216c3.687,18.094-20.162,38.384-46.044,24.306l37.195-23.782L162.511,256.216z"/>
				
					<line style="fill-rule:evenodd;clip-rule:evenodd;fill:none;stroke:#1C1C26;stroke-width:3.0646;stroke-miterlimit:10;" x1="130.07" y1="271.824" x2="135.964" y2="285.166"/>
				
					<line style="fill-rule:evenodd;clip-rule:evenodd;fill:none;stroke:#1C1C26;stroke-width:3.0646;stroke-miterlimit:10;" x1="144.469" y1="262.617" x2="155.294" y2="277.178"/>
			</g>
			<g>
				
					<ellipse transform="matrix(0.9958 -0.0921 0.0921 0.9958 -20.4593 11.045)" style="fill-rule:evenodd;clip-rule:evenodd;fill:#B3CEFF;" cx="109.445" cy="227.203" rx="24.77" ry="24.77"/>
				<ellipse style="fill-rule:evenodd;clip-rule:evenodd;fill:#FFFFFF;" cx="112.482" cy="228.08" rx="21.734" ry="20.857"/>
				<ellipse style="fill-rule:evenodd;clip-rule:evenodd;fill:#1C1C26;" cx="111.509" cy="228.101" rx="5.777" ry="8.508"/>
				
					<ellipse transform="matrix(0.9958 -0.0921 0.0921 0.9958 -20.4593 11.045)" style="fill-rule:evenodd;clip-rule:evenodd;fill:none;stroke:#1C1C26;stroke-width:2.5243;stroke-miterlimit:10;" cx="109.445" cy="227.203" rx="24.77" ry="24.77"/>
				<g>
					<path style="fill:#1C1C26;" d="M79.234,223.307c0.762-5.25,3.17-10.35,6.824-14.404c3.654-4.052,8.473-7.088,13.76-8.652
						c5.279-1.583,11.082-1.605,16.383,0.153c5.324,1.712,9.929,5.385,13.018,9.927l-2.053,1.468
						c-1.527-1.998-3.285-3.801-5.29-5.271c-2.008-1.458-4.221-2.628-6.575-3.409c-4.718-1.559-9.905-1.546-14.738-0.242
						c-4.849,1.304-9.329,3.953-12.933,7.526C83.991,213.963,81.239,218.401,79.234,223.307z"/>
				</g>
			</g>
			<path style="fill:#FFC661;" d="M130.094,219.593c0,0-82.464,26.75-92.72,69.167c-0.84,3.473,1.534,6.907,5.069,7.425
				c18.513,2.711,76.084,5.988,123.07-46.724L130.094,219.593z"/>
			<path style="fill:#FFDF99;" d="M135.766,224.717c3.093,5.357-11.92,19.815-33.533,32.293
				c-21.612,12.478-41.64,18.251-44.733,12.894c-3.093-5.357,11.92-19.815,33.533-32.293
				C112.646,225.132,132.673,219.36,135.766,224.717z"/>
			<path style="fill:#D38F3D;" d="M161.471,246.052c0,0-2.84,2.352-3.9,3.173c-51.839,40.146-117.156,47.633-114.949,27.042
				c-2.39,3.994-4.201,8.16-5.249,12.493c-0.84,3.473,1.534,6.907,5.069,7.425c16.952,2.483,69.447,3.616,113.781-36.37
				C159.162,254.37,159.117,250.888,161.471,246.052z"/>
			<path style="fill:none;stroke:#1C1C26;stroke-width:3.3443;stroke-miterlimit:10;" d="M130.094,219.593
				c0,0-82.464,26.75-92.72,69.167c-0.84,3.473,1.534,6.907,5.069,7.425c18.513,2.711,76.084,5.988,123.07-46.724L130.094,219.593z"
				/>
			<g>
				<g>
					
						<ellipse transform="matrix(0.9309 -0.3653 0.3653 0.9309 -72.718 69.9882)" style="fill-rule:evenodd;clip-rule:evenodd;fill:#B3CEFF;" cx="148.634" cy="227.203" rx="24.77" ry="24.77"/>
					<circle style="fill-rule:evenodd;clip-rule:evenodd;fill:#FFFFFF;" cx="152.167" cy="227.203" r="21.238"/>
					
						<ellipse transform="matrix(0.9309 -0.3653 0.3653 0.9309 -72.718 69.9882)" style="fill-rule:evenodd;clip-rule:evenodd;fill:none;stroke:#1C1C26;stroke-width:2.5243;stroke-miterlimit:10;" cx="148.634" cy="227.203" rx="24.77" ry="24.77"/>
					<g>
						<path style="fill:#1C1C26;" d="M178.808,223.307c-2.004-4.905-4.757-9.344-8.396-12.903
							c-3.604-3.573-8.084-6.222-12.933-7.526c-4.832-1.304-10.02-1.316-14.738,0.242c-2.354,0.781-4.567,1.951-6.575,3.409
							c-2.005,1.47-3.763,3.273-5.29,5.271l-2.053-1.468c3.089-4.542,7.694-8.215,13.018-9.927
							c5.301-1.758,11.104-1.736,16.383-0.153c5.287,1.564,10.106,4.6,13.76,8.652C175.637,212.957,178.046,218.056,178.808,223.307
							z"/>
					</g>
				</g>
				<path style="fill-rule:evenodd;clip-rule:evenodd;fill:#1C1C26;" d="M156.223,228.059c0,4.699-2.587,8.508-5.777,8.508
					c-3.19,0-5.777-3.809-5.777-8.508s2.586-8.508,5.777-8.508C153.637,219.551,156.223,223.36,156.223,228.059z"/>
			</g>
			<g>
				<path style="fill:#FFC661;" d="M132.731,253.368c23.012-19.765,40.244-14.398,40.717-4.299
					C173.767,255.878,132.731,253.368,132.731,253.368z"/>
				<path style="fill:#FFDF99;" d="M173.094,250.165c0.246-0.336,0.373-0.699,0.354-1.096c-0.473-10.098-17.705-15.466-40.717,4.299
					c0,0,0.115,0.007,0.322,0.019C151.208,241.183,167.054,243.471,173.094,250.165z"/>
				<g>
					<path style="fill:#1C1C26;" d="M172.752,246.075c-1.039-1.632-2.502-2.852-4.164-3.618c-0.387-0.233-0.844-0.349-1.256-0.528
						l-0.631-0.244l-0.665-0.155c-0.446-0.09-0.871-0.238-1.317-0.31l-1.349-0.159c-0.443-0.077-0.899-0.072-1.354-0.06
						l-1.356-0.016c-0.907,0.068-1.813,0.182-2.714,0.281l-2.691,0.545l-2.642,0.813c-0.883,0.265-1.732,0.657-2.602,0.978
						c-0.429,0.179-0.873,0.316-1.29,0.528c-0.418,0.208-0.836,0.416-1.261,0.61c-0.838,0.413-1.714,0.754-2.526,1.228
						c-0.814,0.47-1.642,0.917-2.475,1.363c-0.849,0.42-1.625,0.961-2.439,1.448l-2.442,1.478c-1.602,1.033-3.173,2.122-4.846,3.11
						c1.313-1.41,2.69-2.769,4.106-4.092c1.507-1.206,2.948-2.526,4.572-3.598c3.16-2.279,6.676-4.093,10.399-5.443
						c3.733-1.269,7.846-1.925,11.847-1.126c2,0.326,3.91,1.17,5.577,2.285C170.877,242.542,172.232,244.198,172.752,246.075z"/>
				</g>
			</g>
			<g>
				<path style="fill:#1C1C26;" d="M170.244,254.016l-23.418,2.826C161.589,245.158,170.244,254.016,170.244,254.016"/>
			</g>
			<g>
				<path style="fill:#1C1C26;" d="M200.288,195.501c-0.269-0.642-0.632-1.467-1.001-2.191l-0.586-1.107l-0.638-1.082
					c-0.443-0.712-0.926-1.395-1.415-2.081c-0.534-0.646-1.042-1.322-1.632-1.928c-1.164-1.22-2.422-2.397-3.861-3.386
					c-0.687-0.555-1.455-0.982-2.211-1.479c-0.76-0.492-1.584-0.862-2.387-1.38c1.861,0.051,3.766,0.368,5.548,1.081
					c1.805,0.663,3.495,1.679,5.001,2.918c1.523,1.225,2.864,2.693,3.945,4.33c0.551,0.812,1.027,1.674,1.45,2.563
					c0.417,0.915,0.758,1.773,1.017,2.872L200.288,195.501z"/>
			</g>
			<g>
				<path style="fill:#1C1C26;" d="M144.299,161.794c1.9-0.392,3.798-0.81,5.716-1.109c1.925-0.259,3.845-0.555,5.786-0.658
					c3.866-0.391,7.764-0.26,11.626-0.039c3.865,0.264,7.705,0.86,11.452,1.793c3.733,0.966,7.425,2.181,10.799,4.018
					c-3.668-1.088-7.394-1.796-11.133-2.286c-3.738-0.484-7.484-0.795-11.234-0.846c-0.936-0.031-1.875,0.019-2.811,0.025
					c-0.936,0.008-1.872,0.028-2.806,0.108l-2.8,0.169l-2.79,0.282c-1.865,0.137-3.7,0.528-5.552,0.765
					c-1.847,0.283-3.666,0.723-5.51,1.037L144.299,161.794z"/>
			</g>
			<g>
				<path style="fill:#1C1C26;" d="M196.65,154.94c0.617,0.053,1.238,0.113,1.859,0.188c0.619,0.081,1.257,0.11,1.865,0.265
					c1.222,0.282,2.471,0.532,3.66,0.98c2.437,0.754,4.72,1.981,6.862,3.414c2.143,1.443,4.086,3.201,5.749,5.197
					c0.829,1,1.599,2.051,2.313,3.144c0.676,1.142,1.304,2.216,1.824,3.575l-3.119,1.207c-0.44-0.916-1.011-2.008-1.625-2.97
					c-0.601-0.996-1.259-1.963-1.973-2.889c-1.42-1.856-3.007-3.608-4.808-5.136c-1.785-1.543-3.735-2.941-5.865-4.073
					C201.292,156.634,198.996,155.799,196.65,154.94z"/>
			</g>
			<g>
				<path style="fill-rule:evenodd;clip-rule:evenodd;fill:#FFC661;" d="M118.755,247.004c2.64,3.165,0.383,9.398-5.041,13.923
					c-5.424,4.525-11.961,5.627-14.601,2.462c-2.64-3.165-0.383-9.398,5.041-13.923
					C109.578,244.942,116.115,243.839,118.755,247.004z"/>
				<path style="fill-rule:evenodd;clip-rule:evenodd;fill:#1C1C26;" d="M113.663,251.818c0.615,1.158-1.085,3.265-3.798,4.706
					c-2.713,1.441-5.41,1.671-6.025,0.513c-0.615-1.158,1.085-3.265,3.798-4.706S113.048,250.66,113.663,251.818z"/>
				<g>
					<path style="fill:#1C1C26;" d="M101.774,251.733c1.316-2.018,3.046-3.833,5.183-5.149c2.113-1.317,4.679-2.179,7.358-1.952
						c1.328,0.111,2.689,0.507,3.863,1.303c1.179,0.776,2.09,2.054,2.423,3.449c0.31,1.407,0.074,2.844-0.529,3.992
						c-0.586,1.163-1.433,2.113-2.415,2.841c0.538-1.101,1.007-2.181,1.234-3.262c0.238-1.079,0.184-2.135-0.157-3.025
						c-0.684-1.789-2.569-2.852-4.638-3.101c-2.09-0.219-4.316,0.258-6.382,1.187C105.615,248.904,103.692,250.269,101.774,251.733z
						"/>
				</g>
			</g>
		</g>
		<g>
			<path style="fill:#FFC661;" d="M347.043,388.988c-1.334,2.717-3.488,9.031-9.704,4.224c-6.216-4.807-11.279-28.748-16.544-27.503
				c-3.765,0.89-8.271,7.353-15.084,9.473c-0.493-6.266-2.267-12.831-5.423-19.175c-10.174-20.451-30.83-30.858-46.136-23.243
				c-15.306,7.614-19.466,30.366-9.292,50.818c7.788,15.656,21.718,25.413,34.689,25.718c27.068,1.729,35.38-11.876,35.38-11.876
				s2.908,12.258,12.983,17.382c10.074,5.124,11.649-3.305,11.649-3.305s12.995,1.069,16.557-10.412
				C359.68,389.607,348.377,386.27,347.043,388.988z"/>
			
				<ellipse transform="matrix(0.8831 -0.4692 0.4692 0.8831 -136.3417 172.2696)" style="fill:#FFDF99;" cx="277.561" cy="359.762" rx="16.8" ry="29.935"/>
			<path style="fill:#D38F3D;" d="M314.93,397.424c0,0,2.908,12.258,12.983,17.382c10.074,5.124,11.649-3.305,11.649-3.305
				s12.995,1.07,16.557-10.412c3.562-11.482-7.741-14.818-9.075-12.101c-1.334,2.717-3.488,9.031-9.704,4.224
				c-6.216-4.807-11.279-28.748-16.544-27.503c-3.765,0.89-8.271,7.353-15.084,9.473c-0.493-6.266-2.267-12.831-5.423-19.175
				c-1.272-2.556-2.707-4.956-4.276-7.183c22.718,39.111-12.073,80.952-55.993,20.117c0.846,4.856,2.439,9.812,4.842,14.64
				c7.788,15.656,21.718,25.413,34.689,25.718C306.617,411.029,314.93,397.424,314.93,397.424z"/>
			<g>
				<path style="fill:#1C1C26;" d="M342.125,403.537c0,0-2.488,5.107,0.524,7.595l4.452,0.369
					C341.666,410.281,342.125,403.537,342.125,403.537z"/>
				<path style="fill:#1C1C26;" d="M335.511,391.241c-4.715,7.084,0.525,12.296,0.525,12.296c-1.899-4.387,1.964-9.035,1.964-9.035
					L335.511,391.241z"/>
				<path style="fill:#1C1C26;" d="M346.479,392.636l-2.349,1.571c0,0,2.103,3.663,6.13,3.182
					C350.26,397.389,346.82,394.378,346.479,392.636z"/>
			</g>
			<g>
				<path style="fill:#1C1C26;" d="M239.431,357.342c0.382,4.672,1.118,9.165,2.349,13.519c1.241,4.34,2.812,8.57,4.934,12.535
					c2.102,3.968,4.693,7.666,7.716,10.945c1.494,1.657,3.135,3.164,4.824,4.604c1.746,1.365,3.526,2.694,5.45,3.769
					c1.886,1.148,3.909,2.01,5.941,2.8c2.059,0.709,4.164,1.272,6.303,1.535c0.527,0.106,1.085,0.09,1.626,0.142
					c0.547,0.035,1.081,0.082,1.658,0.09l3.405,0.106c1.14,0.068,2.246-0.047,3.371-0.059l1.681-0.054l1.665-0.176
					c4.438-0.443,8.821-1.387,12.865-3.11c2.035-0.83,3.948-1.913,5.716-3.163c0.44-0.316,0.886-0.627,1.293-0.977
					c0.419-0.339,0.843-0.674,1.222-1.048c0.403-0.357,0.768-0.738,1.127-1.122c0.34-0.37,0.71-0.824,0.925-1.124l2.233-3.112
					l0.822,3.598l0.001,0.004c0.722,2.671,1.953,5.452,3.447,7.895c1.53,2.447,3.379,4.692,5.612,6.422
					c1.129,0.843,2.313,1.609,3.585,2.193l0.956,0.432c0.319,0.143,0.642,0.216,0.962,0.33c0.643,0.248,1.275,0.319,1.897,0.428
					c1.25,0.15,2.331-0.116,3.161-0.755c0.43-0.303,0.789-0.738,1.089-1.235c0.157-0.242,0.282-0.517,0.398-0.789
					c0.109-0.256,0.215-0.606,0.253-0.77l0.334-1.439l1.447,0.079c0.877,0.048,1.956-0.005,2.933-0.116
					c0.996-0.13,1.988-0.307,2.938-0.595c1.909-0.546,3.693-1.423,5.15-2.663c1.464-1.233,2.569-2.832,3.319-4.622
					c0.786-1.781,1.182-3.796,1.069-5.612c-0.126-1.826-0.853-3.512-2.149-4.705c-0.632-0.605-1.401-1.08-2.205-1.395
					c-0.778-0.313-1.715-0.432-2.179-0.302c-0.125,0.019-0.139,0.065-0.138,0.042c0.039-0.008,0.029-0.038,0.079-0.078
					c0.01-0.003,0.041-0.088,0.014-0.035l-0.083,0.174l-0.705,1.49c-0.513,1.035-1.09,2.122-2.001,3.14
					c-0.468,0.501-1.001,0.995-1.682,1.37c-0.344,0.184-0.685,0.369-1.083,0.463l-0.58,0.159c-0.195,0.029-0.394,0.04-0.591,0.055
					c-1.596,0.091-2.961-0.47-4.057-1.103c-0.55-0.335-1.033-0.677-1.552-1.067c-0.534-0.438-0.982-0.905-1.387-1.38
					c-0.807-0.952-1.428-1.941-2.012-2.934c-1.16-1.988-2.084-4.013-2.985-6.035c-1.782-4.036-3.33-8.133-5.182-11.945
					c-0.464-0.947-0.958-1.864-1.489-2.706c-0.516-0.827-1.149-1.618-1.644-1.946c-0.246-0.141-0.325-0.168-0.315-0.143
					c-0.084,0.012-0.32,0.106-0.476,0.145l-0.571,0.269c-0.789,0.427-1.616,1.05-2.44,1.699c-1.651,1.315-3.352,2.788-5.22,4.104
					c-1.876,1.311-3.958,2.48-6.26,3.215l-0.008,0.003l-1.913,0.674l-0.251-2.14c-0.17-1.453-0.343-2.906-0.613-4.346
					c-0.233-1.445-0.532-2.882-0.892-4.305c-0.704-2.849-1.594-5.666-2.697-8.416c-1.089-2.757-2.403-5.432-3.869-8.045
					c-1.486-2.601-3.181-5.1-5.033-7.525c2.355,1.944,4.48,4.186,6.382,6.616c1.917,2.422,3.573,5.058,5.001,7.82
					c1.427,2.763,2.6,5.673,3.458,8.684c0.421,1.507,0.778,3.034,1.065,4.577c0.251,1.548,0.463,3.107,0.532,4.677l-2.164-1.465
					l0.007-0.003c1.862-0.597,3.637-1.574,5.333-2.759c1.703-1.198,3.308-2.586,5.068-3.991c0.892-0.695,1.805-1.406,2.936-2.023
					l0.911-0.426c0.366-0.114,0.64-0.234,1.089-0.323c0.265-0.037,0.536-0.059,0.802-0.064c0.254,0.026,0.508,0.075,0.758,0.132
					c0.268,0.047,0.434,0.161,0.653,0.249c0.212,0.094,0.41,0.198,0.558,0.313c1.308,0.921,1.972,1.953,2.633,2.947
					c0.633,1.004,1.172,2.014,1.669,3.025c1.962,4.044,3.497,8.127,5.243,12.075c0.873,1.963,1.77,3.914,2.813,5.697
					c0.519,0.887,1.071,1.75,1.679,2.463c0.302,0.355,0.615,0.674,0.925,0.929c0.353,0.26,0.763,0.554,1.142,0.786
					c0.778,0.459,1.547,0.694,2.138,0.656c0.58-0.034,1.119-0.328,1.683-0.946c0.554-0.609,1.037-1.458,1.485-2.377l0.695-1.469
					l0.093-0.195c0.032-0.07,0.148-0.263,0.229-0.382c0.176-0.286,0.405-0.474,0.631-0.676c0.45-0.33,0.929-0.541,1.34-0.635
					c0.847-0.213,1.58-0.184,2.273-0.095c0.69,0.098,1.341,0.27,1.955,0.51c1.227,0.48,2.345,1.18,3.294,2.08
					c1.939,1.771,3.04,4.387,3.194,6.903c0.089,1.263-0.024,2.504-0.254,3.694c-0.11,0.599-0.268,1.176-0.433,1.75
					c-0.185,0.571-0.42,1.13-0.632,1.694c-0.926,2.226-2.365,4.31-4.249,5.891c-1.874,1.592-4.103,2.669-6.381,3.321
					c-1.14,0.342-2.304,0.551-3.47,0.702c-1.19,0.128-2.298,0.201-3.601,0.129l1.781-1.359c-0.127,0.582-0.262,0.961-0.441,1.412
					c-0.18,0.431-0.378,0.853-0.631,1.256c-0.486,0.808-1.118,1.58-1.929,2.173c-1.598,1.252-3.736,1.651-5.513,1.422
					c-0.881-0.132-1.778-0.269-2.569-0.564c-0.401-0.139-0.825-0.249-1.204-0.417l-1.135-0.51c-1.507-0.695-2.904-1.594-4.221-2.583
					c-2.608-2.024-4.703-4.581-6.406-7.31c-1.679-2.779-2.974-5.637-3.851-8.871l-0.002-0.008l3.054,0.486
					c-0.423,0.666-0.783,1.115-1.2,1.621c-0.411,0.481-0.83,0.953-1.276,1.385c-0.878,0.886-1.811,1.706-2.807,2.432
					c-1.976,1.47-4.098,2.729-6.33,3.705c-4.444,2.015-9.203,3.17-13.971,3.658l-1.789,0.201l-1.791,0.075
					c-1.19,0.026-2.399,0.152-3.574,0.093l-3.541-0.111c-0.581-0.009-1.202-0.061-1.811-0.103c-0.611-0.059-1.22-0.049-1.833-0.168
					c-2.465-0.31-4.855-0.953-7.171-1.761c-2.286-0.875-4.517-1.9-6.582-3.181c-8.393-4.975-14.761-12.672-19.03-21.177
					c-2.133-4.264-3.76-8.814-4.522-13.521C238.364,366.754,238.324,361.913,239.431,357.342z"/>
			</g>
			<g>
				<path style="fill:#1C1C26;" d="M339.547,413.173c-1.844,0.055-3.78-0.126-5.542-0.909c-1.768-0.71-3.385-1.829-4.616-3.221
					c-1.266-1.363-2.204-2.952-2.85-4.604c-0.619-1.662-1.005-3.399-0.932-5.147c1.766,2.953,3.674,5.548,5.988,7.431
					c0.299,0.22,0.577,0.465,0.883,0.664c0.319,0.182,0.616,0.386,0.921,0.58c0.303,0.195,0.647,0.314,0.964,0.478l0.476,0.245
					l0.507,0.173c1.316,0.565,2.76,0.71,4.231,0.967L339.547,413.173z"/>
			</g>
		</g>
		<g>
			<g>
				<g>
					<path style="fill:#FFC661;" d="M195.498,281.408c82.267-18.95,84.471-124.86,84.471-124.86s91.89-84.86,193.693-70.317
						c0,0-70.736,61.236-85.72,131.071c0,0-50.241,19.36-44.023,70.102C343.918,287.405,279.223,341.389,195.498,281.408z"/>
					<path style="fill:#FFDF99;" d="M279.938,157.432c-0.427,10.025-6.345,102.304-79.925,122.828
						c-1.762,0.492-2.168,2.812-0.654,3.838c0.068,0.046,0.135,0.092,0.203,0.137c4.016,2.714,9.161,3.162,13.529,1.061
						c3.668-1.764,7.861-4.007,12.622-6.802c56.874-33.388,62.821-107.595,63.334-116.511c0.033-0.57,0.291-1.104,0.716-1.485
						c48.045-42.985,95.965-61.621,132.145-69.476c2.701-0.586,1.965-4.635-0.767-4.213
						c-74.071,11.45-133.553,62.924-140.495,69.125C280.216,156.32,279.962,156.856,279.938,157.432z"/>
					<path style="fill:#D38F3D;" d="M234.754,284.907c0,0,1.321,9.296-12.013,12.546c70.108,32.556,121.177-10.047,121.177-10.047
						c-6.217-50.742,44.023-70.102,44.023-70.102c14.984-69.835,85.72-131.071,85.72-131.071s-99.008,2.696-179.242,80.627
						C294.42,166.859,295.439,239.495,234.754,284.907z"/>
					<path style="fill:#F29E41;" d="M339.561,169.918c-4.402,41.423-36.424,58.141-36.424,58.141s-5.288,53.775-51.807,79.042
						c11.596,2.463,22.416,3.007,32.277,2.337c14.298-31.114,37.598-46.976,37.598-46.976
						c-3.281-53.754,42.584-77.307,42.584-77.307c11.747-20.581,30.074-26.808,48.853-26.274
						c17.634-28.721,39.432-51.914,51.624-63.857C399.532,108.095,339.561,169.918,339.561,169.918z"/>
					<g>
						<path style="fill:#1C1C26;" d="M195.498,281.408c1.553-0.774,3.114-1.438,4.684-2.047c0.781-0.315,1.568-0.604,2.356-0.883
							c0.772-0.33,1.534-0.682,2.309-0.992c1.535-0.663,3.094-1.247,4.648-1.843l4.54-2.075c0.751-0.356,1.527-0.663,2.257-1.058
							l2.182-1.206l2.182-1.205c0.728-0.401,1.463-0.788,2.144-1.267l4.166-2.734c1.385-0.915,2.653-1.998,3.985-2.986
							c10.527-8.138,18.981-18.702,25.684-30.175c6.646-11.542,11.613-24.052,15.093-36.957c1.744-6.452,3.228-12.985,4.314-19.589
							c1.077-6.586,1.927-13.291,2.255-19.877l0.037-0.746l0.5-0.448l0.002-0.001c6.694-5.978,13.671-11.422,20.848-16.677
							c7.182-5.226,14.558-10.182,22.116-14.847c7.558-4.665,15.297-9.038,23.202-13.098c7.916-4.039,16.017-7.717,24.263-11.044
							c8.233-3.362,16.682-6.197,25.236-8.65c8.544-2.498,17.276-4.355,26.072-5.755c8.792-1.477,17.714-2.093,26.625-2.306
							l6.692,0.01c2.23,0.031,4.457,0.223,6.685,0.327l3.342,0.188c1.112,0.083,2.219,0.239,3.329,0.355l6.653,0.754l3.659,0.415
							l-2.801,2.505c-9.766,8.731-18.976,18.27-27.699,28.13c-8.727,9.881-16.911,20.239-24.431,31.051
							c-3.757,5.408-7.298,10.959-10.673,16.605c-3.365,5.653-6.445,11.465-9.331,17.365c-2.851,5.919-5.369,11.984-7.624,18.14
							c-2.18,6.184-3.987,12.484-5.422,18.867l-0.194,0.863l-0.84,0.347c-3.251,1.342-6.54,3.083-9.641,4.952
							c-3.115,1.889-6.117,3.967-8.964,6.234c-5.677,4.542-10.804,9.806-14.828,15.825c-2.004,3.009-3.793,6.162-5.232,9.473
							c-1.401,3.323-2.582,6.745-3.359,10.272c-1.584,7.046-1.778,14.376-0.94,21.582l0.107,0.922l-0.696,0.565l-0.001,0.001
							c-2.08,1.761-4.192,3.218-6.384,4.668c-2.198,1.406-4.418,2.782-6.724,3.997c-4.588,2.47-9.338,4.643-14.241,6.395
							c-4.898,1.754-9.888,3.267-14.987,4.277c-2.53,0.584-5.094,1.014-7.68,1.262c-1.284,0.172-2.596,0.154-3.9,0.138
							c-1.304-0.015-2.611-0.095-3.916-0.272c2.471-1.022,4.96-1.553,7.422-2.218c2.456-0.686,4.955-1.086,7.39-1.799
							c4.909-1.239,9.702-2.888,14.409-4.708c4.715-1.814,9.278-3.995,13.73-6.358c2.221-1.193,4.409-2.443,6.557-3.756
							c2.112-1.335,4.254-2.752,6.18-4.194l0.001-0.001l-0.588,1.487c-0.879-7.535-0.681-15.266,0.997-22.724
							c0.824-3.733,2.071-7.359,3.557-10.875c1.524-3.504,3.412-6.836,5.524-10.005c4.243-6.342,9.61-11.845,15.519-16.572
							c2.964-2.36,6.082-4.517,9.318-6.48c3.261-1.957,6.551-3.716,10.167-5.209l-1.034,1.209c1.468-6.54,3.317-12.982,5.542-19.29
							c2.298-6.278,4.864-12.453,7.76-18.467c2.931-5.994,6.058-11.891,9.467-17.618c3.419-5.72,7.003-11.338,10.802-16.806
							c7.604-10.932,15.865-21.388,24.67-31.357c8.824-9.968,18.038-19.523,28.019-28.447l0.858,2.919l-6.52-0.738
							c-1.088-0.114-2.172-0.268-3.262-0.349l-3.277-0.183c-2.185-0.101-4.367-0.292-6.555-0.321l-6.566-0.01
							c-8.746,0.211-17.509,0.812-26.158,2.267c-8.653,1.378-17.249,3.204-25.674,5.668c-8.433,2.418-16.77,5.214-24.904,8.536
							c-8.145,3.287-16.155,6.923-23.986,10.918c-7.82,4.017-15.482,8.346-22.966,12.965c-7.484,4.619-14.791,9.529-21.902,14.703
							c-7.085,5.183-14.058,10.635-20.55,16.432l-0.001,0.001l0.537-1.193c-0.191,6.914-0.976,13.643-2.034,20.389
							c-1.064,6.731-2.47,13.411-4.26,19.994c-3.589,13.157-8.7,25.951-15.573,37.807c-7.021,11.738-15.953,22.506-26.949,30.767
							c-1.392,1.004-2.719,2.099-4.164,3.024l-4.344,2.761c-0.71,0.482-1.475,0.873-2.232,1.275l-2.27,1.211l-2.269,1.209
							c-0.76,0.396-1.563,0.703-2.342,1.058l-4.712,2.052c-1.628,0.536-3.25,1.085-4.896,1.553
							c-0.818,0.246-1.636,0.493-2.469,0.684c-0.842,0.162-1.685,0.314-2.533,0.44C198.902,281.081,197.205,281.3,195.498,281.408z"
							/>
					</g>
				</g>
				<g>
					<path style="fill:#1C1C26;" d="M473.707,87.903c-8.17,0.387-16.471,1.516-24.635,2.891c-8.181,1.409-16.3,3.199-24.336,5.302
						c-8.035,2.107-15.983,4.546-23.825,7.287c-7.836,2.76-15.547,5.866-23.135,9.242c-7.606,3.342-14.999,7.145-22.287,11.123
						l-5.423,3.064c-1.8,1.035-3.556,2.143-5.337,3.21c-3.583,2.1-7.002,4.462-10.497,6.702
						c-13.751,9.311-26.698,19.802-38.648,31.333l0.507-1.223c-0.052,5.889-0.638,11.569-1.459,17.285
						c-0.825,5.699-1.96,11.347-3.373,16.926c-2.797,11.166-6.811,22.021-11.854,32.376c-2.557,5.163-5.414,10.173-8.493,15.044
						c-3.146,4.829-6.527,9.505-10.188,13.96c-7.34,8.893-15.776,16.868-24.968,23.819l0.653-1.576
						c0.034,0.471,0.02,0.759-0.006,1.114c-0.015,0.342-0.068,0.669-0.119,0.995c-0.04,0.33-0.127,0.646-0.206,0.964
						c-0.072,0.319-0.162,0.632-0.283,0.935c-0.395,1.243-1.086,2.349-1.82,3.377c-1.555,2.021-3.665,3.423-5.852,4.329
						l-0.812,0.365l-0.844,0.265l-1.677,0.523c-1.146,0.212-2.273,0.492-3.416,0.631c-1.149,0.097-2.285,0.265-3.428,0.299
						l-3.421,0.05l3.376-0.465c1.119-0.172,2.213-0.475,3.312-0.703c1.09-0.271,2.139-0.676,3.197-1.006l1.51-0.685l0.75-0.339
						l0.697-0.426c1.889-1.064,3.522-2.514,4.543-4.261c0.47-0.891,0.901-1.792,1.072-2.761c0.066-0.235,0.101-0.476,0.123-0.718
						c0.028-0.24,0.068-0.479,0.062-0.717c0.007-0.238,0.019-0.476-0.004-0.703c-0.005-0.213-0.042-0.494-0.065-0.588l-0.229-0.909
						l0.882-0.667c8.983-6.795,17.221-14.582,24.391-23.269c3.576-4.352,6.879-8.921,9.955-13.641
						c3.01-4.762,5.804-9.661,8.307-14.713c4.934-10.134,8.871-20.77,11.612-31.718c1.385-5.469,2.498-11.009,3.306-16.589
						c0.804-5.558,1.376-11.245,1.424-16.755l0.007-0.74l0.5-0.483c12.093-11.67,25.197-22.288,39.111-31.709
						c3.536-2.268,6.996-4.656,10.621-6.782c1.801-1.08,3.579-2.201,5.399-3.248l5.485-3.1c7.371-4.024,14.849-7.869,22.54-11.249
						c7.673-3.414,15.469-6.554,23.391-9.344c7.928-2.771,15.963-5.237,24.087-7.367c8.125-2.127,16.334-3.936,24.616-5.363
						c8.304-1.394,16.589-2.534,25.11-2.938L473.707,87.903z"/>
				</g>
			</g>
			<path style="fill:none;stroke:#1C1C26;stroke-width:3.3443;stroke-miterlimit:10;" d="M294.42,166.859
				c0,0,67.376-14.667,93.521,50.444"/>
			<path style="fill:none;stroke:#1C1C26;stroke-width:3.3443;stroke-miterlimit:10;" d="M343.918,287.405
				c0,0-54.187-41.353-49.498-120.546"/>
		</g>
	</g>
</g>
</svg>
